<?xml version="1.0" encoding="UTF-8"?>
<svg id="Capa_1" data-name="Capa 1" xmlns="http://www.w3.org/2000/svg" viewBox="0 0 359.36 125.94">
  <defs>
    <style>
      .cls-1 {
        fill: #fff;
        stroke-width: 0px;
      }
    </style>
  </defs>
  <g>
    <rect class="cls-1" x="6.17" y="81.6" width="89.38" height="1"/>
    <rect class="cls-1" x="252.56" y="81.6" width="89.38" height="1"/>
  </g>
  <g>
    <path class="cls-1" d="m103.73,82.61v3.62h-1.49v-9.43h6.19c2.2,0,3.42,1.32,3.42,2.89s-1.22,2.92-3.42,2.92h-4.7Zm0-4.58v3.35h4.4c1.44,0,2.16-.66,2.16-1.69s-.73-1.66-2.16-1.66h-4.4Z"/>
    <path class="cls-1" d="m123.09,86.23l-2.52-3.5h-4.21v3.5h-1.49v-9.43h6.27c2.16,0,3.5,1.27,3.5,2.98,0,1.42-.96,2.42-2.49,2.79l2.62,3.67h-1.69Zm-6.73-8.2v3.48h4.48c1.47,0,2.28-.59,2.28-1.74s-.81-1.74-2.28-1.74h-4.48Z"/>
    <path class="cls-1" d="m134.02,86.4c-3.96,0-6.76-1.88-6.76-4.89s2.82-4.89,6.76-4.89,6.78,1.88,6.78,4.89-2.77,4.89-6.78,4.89Zm0-8.52c-2.94,0-5.21,1.29-5.21,3.64s2.27,3.63,5.21,3.63,5.22-1.27,5.22-3.63-2.28-3.64-5.22-3.64Z"/>
    <path class="cls-1" d="m144.07,86.23v-9.43h5.88c3.77,0,6.05,1.71,6.05,4.72s-2.28,4.72-6.05,4.72h-5.88Zm5.88-1.22c2.59,0,4.5-1.17,4.5-3.5s-1.91-3.48-4.5-3.48h-4.41v6.98h4.41Z"/>
    <path class="cls-1" d="m168.2,76.8h1.47v4.77c0,3.53-2.47,4.92-5.29,4.92s-5.26-1.39-5.26-4.92v-4.77h1.47v4.77c0,2.77,1.89,3.67,3.79,3.67s3.82-.9,3.82-3.67v-4.77Z"/>
    <path class="cls-1" d="m184.25,85.49c-1.3.64-2.99.91-4.7.91-4.04,0-6.81-1.88-6.81-4.87s2.77-4.9,6.8-4.9c1.66,0,3.38.27,4.72.93v1.27c-.95-.49-2.57-.98-4.65-.98-3.28,0-5.29,1.47-5.29,3.67s1.98,3.67,5.33,3.67c2.06,0,3.8-.52,4.62-.96v1.27Z"/>
    <path class="cls-1" d="m190.71,86.23v-8.2h-4.51v-1.23h10.5v1.23h-4.51v8.2h-1.47Z"/>
    <path class="cls-1" d="m199.44,86.23v-9.43h1.47v9.43h-1.47Z"/>
    <path class="cls-1" d="m210.96,86.4c-3.96,0-6.76-1.88-6.76-4.89s2.82-4.89,6.76-4.89,6.78,1.88,6.78,4.89-2.77,4.89-6.78,4.89Zm0-8.52c-2.94,0-5.21,1.29-5.21,3.64s2.27,3.63,5.21,3.63,5.22-1.27,5.22-3.63-2.28-3.64-5.22-3.64Z"/>
    <path class="cls-1" d="m222.49,79.27v6.97h-1.49v-9.6l9.81,7.25v-7.08h1.47v9.6l-9.79-7.13Z"/>
    <path class="cls-1" d="m245.07,78.34c-1.2-.42-2.79-.54-4.31-.54-1.27,0-3.57.07-3.57,1.39,0,2.69,8.57,0,8.57,4.36,0,2.43-2.79,2.86-5.16,2.86-1.74,0-3.65-.2-5.05-.57l.05-1.23c1.45.42,3.38.63,5.02.63,1.74,0,3.75-.25,3.75-1.61,0-2.91-8.57-.14-8.57-4.33,0-2.4,2.96-2.65,4.92-2.65s3.37.2,4.41.54l-.07,1.17Z"/>
  </g>
  <g>
    <path class="cls-1" d="m45.1,65.72v-23.59h-12.55v-6.46h32.74v6.46h-12.65v23.59h-7.54Z"/>
    <path class="cls-1" d="m89.69,66.26c-13.41,0-21.86-6.52-21.86-15.56s8.51-15.56,21.86-15.56,21.97,6.52,21.97,15.56-8.08,15.56-21.97,15.56Zm0-24.72c-8.02,0-13.79,3.61-13.79,9.15s5.82,9.15,13.79,9.15,13.89-3.55,13.89-9.15-5.87-9.15-13.89-9.15Z"/>
    <path class="cls-1" d="m118.92,65.72v-30.05h19.98c7.43,0,11.25,1.94,11.25,8.99,0,2.15-1.29,3.98-2.69,4.79,2.96.48,5.22,3.66,5.22,7.05,0,6.3-2.85,9.21-12.76,9.21h-21Zm7.54-23.59v5.17h12.38c2.37,0,3.29-1.08,3.29-2.64s-.92-2.53-3.23-2.53h-12.44Zm0,11.63v5.49h13.46c3.5,0,4.68-.86,4.68-2.75s-1.02-2.75-4.68-2.75h-13.46Z"/>
    <path class="cls-1" d="m159.95,65.72v-30.05h19.98c7.43,0,11.25,1.94,11.25,8.99,0,2.15-1.29,3.98-2.69,4.79,2.96.48,5.22,3.66,5.22,7.05,0,6.3-2.85,9.21-12.76,9.21h-21Zm7.54-23.59v5.17h12.38c2.37,0,3.29-1.08,3.29-2.64s-.92-2.53-3.23-2.53h-12.44Zm0,11.63v5.49h13.46c3.5,0,4.68-.86,4.68-2.75s-1.02-2.75-4.68-2.75h-13.46Z"/>
    <path class="cls-1" d="m224.18,61.04h-17.39l-2.91,4.68h-8.4l20.03-30.59,20.03,30.59h-8.45l-2.91-4.68Zm-13.35-6.46h9.32l-4.63-7.43-4.68,7.43Z"/>
    <path class="cls-1" d="m273.4,63.41c-4.31,2.1-9.8,2.85-14.65,2.85-14.16,0-22.51-6.52-22.51-15.51s8.29-15.62,22.35-15.62c4.58,0,10.39.7,14.81,2.91v6.57c-2.42-1.02-7.32-3.07-14.32-3.07-10.5,0-14.75,4.58-14.75,9.15s4.09,9.15,14.92,9.15c7.54,0,12.33-2.21,14.16-3.02v6.57Z"/>
    <path class="cls-1" d="m301.18,47.84l14.38,17.88h-8.99l-10.66-13.19-7.38,6.57v6.62h-7.54v-30.05h7.54v15.02l17.02-15.02h9.26l-13.62,12.17Z"/>
  </g>
</svg>